<?xml version="1.0" encoding="UTF-8" standalone="no"?>
<!-- Created with Inkscape (http://www.inkscape.org/) -->

<svg
   version="1.1"
   id="svg2"
   xml:space="preserve"
   width="239.97992"
   height="74.32"
   viewBox="0 0 239.97992 74.32"
   sodipodi:docname="VGLDKLogo.svg"
   inkscape:version="1.1.2 (0a00cf5339, 2022-02-04)"
   xmlns:inkscape="http://www.inkscape.org/namespaces/inkscape"
   xmlns:sodipodi="http://sodipodi.sourceforge.net/DTD/sodipodi-0.dtd"
   xmlns="http://www.w3.org/2000/svg"
   xmlns:svg="http://www.w3.org/2000/svg"
   xmlns:rdf="http://www.w3.org/1999/02/22-rdf-syntax-ns#"
   xmlns:cc="http://creativecommons.org/ns#"
   xmlns:dc="http://purl.org/dc/elements/1.1/"><metadata
     id="metadata8"><rdf:RDF><cc:Work
         rdf:about=""><dc:format>image/svg+xml</dc:format><dc:type
           rdf:resource="http://purl.org/dc/dcmitype/StillImage" /><dc:title /></cc:Work></rdf:RDF></metadata><defs
     id="defs6"><inkscape:path-effect
       effect="simplify"
       id="path-effect1210"
       is_visible="true"
       steps="1"
       threshold="0.00693359"
       smooth_angles="360"
       helper_size="0"
       simplify_individual_paths="false"
       simplify_just_coalesce="false"
       simplifyindividualpaths="false"
       simplifyJustCoalesce="false" /><clipPath
       clipPathUnits="userSpaceOnUse"
       id="clipPath18"><path
         d="M 0,57.12 H 184.561 V 0 H 0 Z"
         id="path16"
         inkscape:connector-curvature="0" /></clipPath></defs><sodipodi:namedview
     pagecolor="#ffffff"
     bordercolor="#666666"
     borderopacity="1"
     objecttolerance="10"
     gridtolerance="10"
     guidetolerance="10"
     inkscape:pageopacity="0"
     inkscape:pageshadow="2"
     inkscape:window-width="1435"
     inkscape:window-height="601"
     id="namedview4"
     showgrid="false"
     inkscape:zoom="4.2872138"
     inkscape:cx="134.93612"
     inkscape:cy="20.526152"
     inkscape:window-x="0"
     inkscape:window-y="0"
     inkscape:window-maximized="0"
     inkscape:current-layer="layer1"
     showguides="true"
     inkscape:guide-bbox="true"
     fit-margin-top="0"
     fit-margin-left="0"
     fit-margin-right="0"
     fit-margin-bottom="0"
     inkscape:pagecheckerboard="0" /><g
     inkscape:groupmode="layer"
     id="layer1"
     inkscape:label="VGLDK"
     transform="translate(-2.6666666e-4,-1.8398686)"><path
       style="display:inline;fill:#000000;fill-opacity:0.994565;fill-rule:nonzero;stroke:none;stroke-width:1.33333;stroke-opacity:1"
       d="m 11.600267,1.8398686 h -0.64 c -6.0800004,0 -10.96000033334,4.7999999 -10.96000033334,10.8800004 v 52.559998 c 0,6 4.87999993334,10.88 10.96000033334,10.88 H 229.10018 c 6,0 10.88,-4.88 10.88,-10.88 V 12.719869 c 0,-6.0000005 -4.88,-10.8800004 -10.88,-10.8800004 H 77.840265 l -3.6,10.8800004 H 224.61751 c 2.08133,0 3.76133,1.68 3.76133,3.76 v 45.039999 c 0,1.999999 -1.68,3.759999 -3.76133,3.759999 H 15.600267 c -2.08,0 -4,-1.76 -4,-3.759999 z"
       id="path64-5"
       inkscape:connector-curvature="0"
       inkscape:label="frame_path64"
       sodipodi:nodetypes="cssssssssccssssssc" /><path
       style="display:inline;fill:#000000;fill-opacity:0.956522;fill-rule:nonzero;stroke:none;stroke-width:1.33333;stroke-opacity:1"
       d="m 192.13885,42.159868 -5.03867,15.36 h -13.84133 l 12.23867,-37.119999 h 13.84133 l -4.72133,14.4 1.25437,-1e-6 13.88635,-14.399999 h 12.14061 L 204.96398,38.24933 c 9.63875,0 9.27917,4.935002 4.61487,19.270538 h -13.76 c 5.7411,-15.36 3.82051,-15.389555 0.50565,-15.36 h -4.18565"
       id="path30-6"
       inkscape:connector-curvature="0"
       inkscape:label="K_path30"
       sodipodi:nodetypes="cccccccccccccc" /><path
       style="display:inline;fill:#000000;fill-opacity:1;fill-rule:nonzero;stroke:none;stroke-width:1.33333;stroke-opacity:1"
       d="m 144.04213,20.400391 -5.33984,16.699707 -6.58008,20.419433 h 22.4781 c 10,0 16.15968,-0.399219 21.04101,-17.199219 3.28,-11.599998 0.9593,-19.919921 -10.7207,-19.919921 z m 11.00178,7.439453 h 5.76868 c 6.64,0 2.96047,8.880704 2.48047,10.720703 -1.52,5.36 -4.00056,11.519531 -9.19922,11.519531 h -6.01086 z"
       id="path60-3"
       inkscape:connector-curvature="0"
       inkscape:label="D_path60-3"
       sodipodi:nodetypes="cccscsccscscc" /><path
       style="display:inline;fill:#000000;fill-opacity:1;fill-rule:nonzero;stroke:none;stroke-width:1.33333;stroke-opacity:1"
       d="m 88.972846,27.839868 c -5.198655,-10e-7 -7.678653,6.160001 -9.198651,11.520001 -0.48,1.839999 -4.159998,10.719999 2.479998,10.719999 h 3.084881 l 1.347003,1e-6 3.604379,-9.916234 -4.438034,2.34e-4 1.671748,-4.646125 15.4581,-0.04175 -7.089026,22.043876 H 76.414195 c -11.679992,0 -13.999992,-8.32 -10.719994,-19.919999 4.881328,-16.8 11.039994,-17.2 21.03999,-17.2 h 21.079079 l -2.48,7.439999 z"
       id="path60-5"
       inkscape:connector-curvature="0"
       inkscape:label="C_path60"
       sodipodi:nodetypes="scscccccccscsccs" /><path
       style="display:inline;fill:#000000;fill-opacity:1;fill-rule:nonzero;stroke:none;stroke-width:1.33333;stroke-opacity:1"
       d="M 56.320265,1.8398686 44.960265,36.319868 33.520266,1.8398686 h -17.84 l 18.4,55.6799994 h 17.919999 l 18.32,-55.6799994 z"
       id="path56-6"
       inkscape:connector-curvature="0"
       inkscape:label="V_path56" /><path
       id="path60-3-3"
       style="display:inline;fill:#000000;fill-opacity:1;fill-rule:nonzero;stroke:none;stroke-width:1.33333;stroke-opacity:1"
       inkscape:label="D_path60-3"
       d="m 112.82214,20.399952 -5.33981,16.699219 -6.58006,20.419922 h 26.80374 l 2.45654,-7.439466 h -13.29942 c 3.08421,-9.905518 6.17408,-19.808641 9.36807,-29.67922 -4.46968,-8.26e-4 -8.93937,-4.55e-4 -13.40906,-4.55e-4 z"
       sodipodi:nodetypes="cccccccc" /></g></svg>
